<svg width="148" height="37" viewBox="0 0 148 37" fill="none" xmlns="http://www.w3.org/2000/svg">
<path d="M26 6H6C5.46957 6 4.96086 6.21071 4.58579 6.58579C4.21071 6.96086 4 7.46957 4 8V28C4 28.5304 4.21071 29.0391 4.58579 29.4142C4.96086 29.7893 5.46957 30 6 30H26C26.5304 30 27.0391 29.7893 27.4142 29.4142C27.7893 29.0391 28 28.5304 28 28V8C28 7.46957 27.7893 6.96086 27.4142 6.58579C27.0391 6.21071 26.5304 6 26 6ZM10 28H6V8H10V28ZM22 21H14C13.7348 21 13.4804 20.8946 13.2929 20.7071C13.1054 20.5196 13 20.2652 13 20C13 19.7348 13.1054 19.4804 13.2929 19.2929C13.4804 19.1054 13.7348 19 14 19H22C22.2652 19 22.5196 19.1054 22.7071 19.2929C22.8946 19.4804 23 19.7348 23 20C23 20.2652 22.8946 20.5196 22.7071 20.7071C22.5196 20.8946 22.2652 21 22 21ZM22 17H14C13.7348 17 13.4804 16.8946 13.2929 16.7071C13.1054 16.5196 13 16.2652 13 16C13 15.7348 13.1054 15.4804 13.2929 15.2929C13.4804 15.1054 13.7348 15 14 15H22C22.2652 15 22.5196 15.1054 22.7071 15.2929C22.8946 15.4804 23 15.7348 23 16C23 16.2652 22.8946 16.5196 22.7071 16.7071C22.5196 16.8946 22.2652 17 22 17Z" fill="#60A5FA"/>
<path d="M40.106 10L37.581 7.2022V10H36.7804V3.86771H37.581V6.7095L40.1148 3.86771H41.1266L38.3464 6.93826L41.153 10H40.106ZM44.6514 4.51877V6.56874H46.8862V7.22859H44.6514V9.34014H47.1501V10H43.8508V3.85892H47.1501V4.51877H44.6514ZM50.9658 4.51877V6.56874H53.2005V7.22859H50.9658V9.34014H53.4645V10H50.1652V3.85892H53.4645V4.51877H50.9658ZM60.5795 5.66253C60.5795 6.17282 60.4035 6.59806 60.0516 6.93826C59.7055 7.27258 59.1747 7.43975 58.4591 7.43975H57.2802V10H56.4795V3.86771H58.4591C59.1512 3.86771 59.6762 4.03488 60.034 4.36921C60.3976 4.70353 60.5795 5.13464 60.5795 5.66253ZM58.4591 6.77989C58.9049 6.77989 59.2334 6.68311 59.4445 6.48955C59.6557 6.29599 59.7612 6.02032 59.7612 5.66253C59.7612 4.90589 59.3272 4.52757 58.4591 4.52757H57.2802V6.77989H58.4591Z" fill="white" fill-opacity="0.6"/>
<path d="M54.6658 13.464C56.3298 13.464 57.6498 13.968 58.6258 14.976C59.6178 15.984 60.1138 17.384 60.1138 19.176V27H56.0338V19.728C56.0338 18.864 55.8018 18.2 55.3378 17.736C54.8898 17.256 54.2658 17.016 53.4658 17.016C52.6658 17.016 52.0338 17.256 51.5698 17.736C51.1218 18.2 50.8978 18.864 50.8978 19.728V27H46.8178V19.728C46.8178 18.864 46.5858 18.2 46.1218 17.736C45.6738 17.256 45.0498 17.016 44.2498 17.016C43.4498 17.016 42.8178 17.256 42.3538 17.736C41.9058 18.2 41.6818 18.864 41.6818 19.728V27H37.5778V13.608H41.6818V15.288C42.0978 14.728 42.6418 14.288 43.3138 13.968C43.9858 13.632 44.7458 13.464 45.5938 13.464C46.6018 13.464 47.4978 13.68 48.2818 14.112C49.0818 14.544 49.7058 15.16 50.1538 15.96C50.6178 15.224 51.2498 14.624 52.0498 14.16C52.8498 13.696 53.7218 13.464 54.6658 13.464ZM76.6641 13.608L68.2641 33.36H63.8481L66.9201 26.544L61.4721 13.608H66.0561L69.1521 21.984L72.2241 13.608H76.6641ZM93.2202 27H89.1162L82.2522 16.608V27H78.1482V10.152H82.2522L89.1162 20.592V10.152H93.2202V27ZM102.291 27.192C100.979 27.192 99.795 26.912 98.739 26.352C97.699 25.792 96.875 24.992 96.267 23.952C95.675 22.912 95.379 21.696 95.379 20.304C95.379 18.928 95.683 17.72 96.291 16.68C96.899 15.624 97.731 14.816 98.787 14.256C99.843 13.696 101.027 13.416 102.339 13.416C103.651 13.416 104.835 13.696 105.891 14.256C106.947 14.816 107.779 15.624 108.387 16.68C108.995 17.72 109.299 18.928 109.299 20.304C109.299 21.68 108.987 22.896 108.363 23.952C107.755 24.992 106.915 25.792 105.843 26.352C104.787 26.912 103.603 27.192 102.291 27.192ZM102.291 23.64C103.075 23.64 103.739 23.352 104.283 22.776C104.843 22.2 105.123 21.376 105.123 20.304C105.123 19.232 104.851 18.408 104.307 17.832C103.779 17.256 103.123 16.968 102.339 16.968C101.539 16.968 100.875 17.256 100.347 17.832C99.819 18.392 99.555 19.216 99.555 20.304C99.555 21.376 99.811 22.2 100.323 22.776C100.851 23.352 101.507 23.64 102.291 23.64ZM118.94 23.52V27H116.852C115.364 27 114.204 26.64 113.372 25.92C112.54 25.184 112.124 23.992 112.124 22.344V17.016H110.492V13.608H112.124V10.344H116.228V13.608H118.916V17.016H116.228V22.392C116.228 22.792 116.324 23.08 116.516 23.256C116.708 23.432 117.028 23.52 117.476 23.52H118.94ZM133.85 20.088C133.85 20.472 133.826 20.872 133.778 21.288H124.49C124.554 22.12 124.818 22.76 125.282 23.208C125.762 23.64 126.346 23.856 127.034 23.856C128.058 23.856 128.77 23.424 129.17 22.56H133.538C133.314 23.44 132.906 24.232 132.314 24.936C131.738 25.64 131.01 26.192 130.13 26.592C129.25 26.992 128.266 27.192 127.178 27.192C125.866 27.192 124.698 26.912 123.674 26.352C122.65 25.792 121.85 24.992 121.274 23.952C120.698 22.912 120.41 21.696 120.41 20.304C120.41 18.912 120.69 17.696 121.25 16.656C121.826 15.616 122.626 14.816 123.65 14.256C124.674 13.696 125.85 13.416 127.178 13.416C128.474 13.416 129.626 13.688 130.634 14.232C131.642 14.776 132.426 15.552 132.986 16.56C133.562 17.568 133.85 18.744 133.85 20.088ZM129.65 19.008C129.65 18.304 129.41 17.744 128.93 17.328C128.45 16.912 127.85 16.704 127.13 16.704C126.442 16.704 125.858 16.904 125.378 17.304C124.914 17.704 124.626 18.272 124.514 19.008H129.65ZM141.463 27.192C140.295 27.192 139.255 26.992 138.343 26.592C137.431 26.192 136.711 25.648 136.183 24.96C135.655 24.256 135.359 23.472 135.295 22.608H139.351C139.399 23.072 139.615 23.448 139.999 23.736C140.383 24.024 140.855 24.168 141.415 24.168C141.927 24.168 142.319 24.072 142.591 23.88C142.879 23.672 143.023 23.408 143.023 23.088C143.023 22.704 142.823 22.424 142.423 22.248C142.023 22.056 141.375 21.848 140.479 21.624C139.519 21.4 138.719 21.168 138.079 20.928C137.439 20.672 136.887 20.28 136.423 19.752C135.959 19.208 135.727 18.48 135.727 17.568C135.727 16.8 135.935 16.104 136.351 15.48C136.783 14.84 137.407 14.336 138.223 13.968C139.055 13.6 140.039 13.416 141.175 13.416C142.855 13.416 144.175 13.832 145.135 14.664C146.111 15.496 146.671 16.6 146.815 17.976H143.023C142.959 17.512 142.751 17.144 142.399 16.872C142.063 16.6 141.615 16.464 141.055 16.464C140.575 16.464 140.207 16.56 139.951 16.752C139.695 16.928 139.567 17.176 139.567 17.496C139.567 17.88 139.767 18.168 140.167 18.36C140.583 18.552 141.223 18.744 142.087 18.936C143.079 19.192 143.887 19.448 144.511 19.704C145.135 19.944 145.679 20.344 146.143 20.904C146.623 21.448 146.871 22.184 146.887 23.112C146.887 23.896 146.663 24.6 146.215 25.224C145.783 25.832 145.151 26.312 144.319 26.664C143.503 27.016 142.551 27.192 141.463 27.192Z" fill="white"/>
</svg>
